HIERARCHY
ROOT Hips
{
	OFFSET 0.00000 0.00000 0.00000
	CHANNELS 6 Xposition Yposition Zposition Zrotation Yrotation Xrotation 
	JOINT LHipJoint
	{
		OFFSET 0 0 0
		CHANNELS 3 Zrotation Yrotation Xrotation
		JOINT LeftUpLeg
		{
			OFFSET 1.41496 -1.84582 0.78394
			CHANNELS 3 Zrotation Yrotation Xrotation
			JOINT LeftLeg
			{
				OFFSET 2.58040 -7.08960 0.00000
				CHANNELS 3 Zrotation Yrotation Xrotation
				JOINT LeftFoot
				{
					OFFSET 2.64719 -7.27309 0.00000
					CHANNELS 3 Zrotation Yrotation Xrotation
					JOINT LeftToeBase
					{
						OFFSET 0.20718 -0.56921 2.20259
						CHANNELS 3 Zrotation Yrotation Xrotation
						End Site
						{
							OFFSET 0.00000 -0.00000 1.14243
						}
					}
				}
			}
		}
	}
	JOINT RHipJoint
	{
		OFFSET 0 0 0
		CHANNELS 3 Zrotation Yrotation Xrotation
		JOINT RightUpLeg
		{
			OFFSET -1.40551 -1.84582 0.78394
			CHANNELS 3 Zrotation Yrotation Xrotation
			JOINT RightLeg
			{
				OFFSET -2.56572 -7.04926 0.00000
				CHANNELS 3 Zrotation Yrotation Xrotation
				JOINT RightFoot
				{
					OFFSET -2.57974 -7.08778 0.00000
					CHANNELS 3 Zrotation Yrotation Xrotation
					JOINT RightToeBase
					{
						OFFSET -0.26704 -0.73369 2.20815
						CHANNELS 3 Zrotation Yrotation Xrotation
						End Site
						{
							OFFSET -0.00000 -0.00000 1.16246
						}
					}
				}
			}
		}
	}
	JOINT LowerBack
	{
		OFFSET 0 0 0
		CHANNELS 3 Zrotation Yrotation Xrotation
		JOINT Spine
		{
			OFFSET -0.04690 2.05196 -0.07017
			CHANNELS 3 Zrotation Yrotation Xrotation
			JOINT Spine1
			{
				OFFSET 0.04085 2.05260 0.00800
				CHANNELS 3 Zrotation Yrotation Xrotation
				JOINT Neck
				{
					OFFSET 0 0 0
					CHANNELS 3 Zrotation Yrotation Xrotation
					JOINT Neck1
					{
						OFFSET -0.03582 1.80995 0.19301
						CHANNELS 3 Zrotation Yrotation Xrotation
						JOINT Head
						{
							OFFSET 0.00952 1.80195 -0.36389
							CHANNELS 3 Zrotation Yrotation Xrotation
							End Site
							{
								OFFSET 0.00392 1.85062 -0.14494
							}
						}
					}
				}
				JOINT LeftShoulder
				{
					OFFSET 0 0 0
					CHANNELS 3 Zrotation Yrotation Xrotation
					JOINT LeftArm
					{
						OFFSET 3.55224 1.39726 -0.13667
						CHANNELS 3 Zrotation Yrotation Xrotation
						JOINT LeftForeArm
						{
							OFFSET 5.14507 -0.00000 -0.00000
							CHANNELS 3 Zrotation Yrotation Xrotation
							JOINT LeftHand
							{
								OFFSET 3.50646 -0.00000 0.00000
								CHANNELS 3 Zrotation Yrotation Xrotation
								JOINT LeftFingerBase
								{
									OFFSET 0 0 0
									CHANNELS 3 Zrotation Yrotation Xrotation
									JOINT LeftHandIndex1
									{
										OFFSET 0.62997 -0.00000 0.00000
										CHANNELS 3 Zrotation Yrotation Xrotation
										End Site
										{
											OFFSET 0.50790 -0.00000 0.00000
										}
									}
								}
								JOINT LThumb
								{
									OFFSET 0 0 0
									CHANNELS 3 Zrotation Yrotation Xrotation
									End Site
									{
										OFFSET 0.51565 -0.00000 0.51565
									}
								}
							}
						}
					}
				}
				JOINT RightShoulder
				{
					OFFSET 0 0 0
					CHANNELS 3 Zrotation Yrotation Xrotation
					JOINT RightArm
					{
						OFFSET -3.06467 1.61290 -0.28813
						CHANNELS 3 Zrotation Yrotation Xrotation
						JOINT RightForeArm
						{
							OFFSET -5.23200 -0.00000 -0.00000
							CHANNELS 3 Zrotation Yrotation Xrotation
							JOINT RightHand
							{
								OFFSET -3.65641 -0.00000 0.00000
								CHANNELS 3 Zrotation Yrotation Xrotation
								JOINT RightFingerBase
								{
									OFFSET 0 0 0
									CHANNELS 3 Zrotation Yrotation Xrotation
									JOINT RightHandIndex1
									{
										OFFSET -0.65681 -0.00000 0.00000
										CHANNELS 3 Zrotation Yrotation Xrotation
										End Site
										{
											OFFSET -0.52953 -0.00000 0.00000
										}
									}
								}
								JOINT RThumb
								{
									OFFSET 0 0 0
									CHANNELS 3 Zrotation Yrotation Xrotation
									End Site
									{
										OFFSET -0.53762 -0.00000 0.53762
									}
								}
							}
						}
					}
				}
			}
		}
	}
}
MOTION
Frames: 11
Frame Time: 0.0465116
0.00 0.00 0.00 0 0 0 0 0 0 -21 0 0 0 0 0 0 0 0 0 0 0 0 0 0 21 0 0 0 0 0 0 0 0 0 0 0 0 0 0 0 0 0 0 0 0 0 0 -16 0 0 21 0 0 11 0 0 0 -8 0 0 0 0 0 0 0 0 0 0 0 0 0 0 0 0 0 0 0 0 8 0 0 0 0 0 0 0 0 0 0 0 0 0 0 0 0 0
0.00 0.00 0.00 176.6420 -4.4136 -166.9810 0.0000 0.0000 0.0000 -22.3002 -12.1574 -17.9115 3.8896 12.0121 35.7747 1.8149 -4.2722 -24.4720 0.0016 -0.2607 -0.7164 0.0000 0.0000 0.0000 10.3238 3.7900 -24.9210 -6.2359 -14.6531 45.9212 -1.3788 -4.2726 -24.0851 -0.1364 2.3804 -6.5580 -3.0021 -0.6324 6.0358 1.5096 -1.0139 -1.0941 3.3541 -0.4077 -4.4440 -2.4230 -1.5377 -17.8555 -0.1643 -1.7067 19.2984 0.1067 -1.1075 9.0241 -0.0000 0.0000 0.0000 -92.0066 2.0684 30.8496 17.2771 -27.2217 -4.2133 -0.0000 -0.0000 13.1363 11.5179 9.0706 1.8400 -7.1250 0.0000 -0.0000 -13.2963 38.9007 2.0404 -0.0000 0.0000 0.0000 84.6511 -6.0754 23.1699 -22.1442 33.1396 -6.6645 0.0000 -0.0000 -2.5905 -19.2067 -11.1559 3.8560 7.1250 -0.0000 -0.0000 7.0685 -41.6705 0.5838
0.00 0.00 0.00 175.1740 -2.7223 -167.2000 0.0000 0.0000 0.0000 -25.2196 -10.7397 -15.3483 3.6407 11.6662 34.5613 1.8782 -3.5888 -25.0311 0.0149 -0.7875 -2.1644 0.0000 0.0000 0.0000 6.8718 3.0294 -35.8543 -10.8499 -17.8609 62.2933 -0.5472 -6.0588 -17.4914 -0.0208 -0.9304 2.5573 -5.2856 -0.6928 7.1221 1.3539 -1.3278 -0.5218 4.5309 -0.5221 -4.3937 -1.9360 -1.0728 -17.5848 -0.3195 -1.1224 18.3530 0.0571 -0.7910 8.6402 0.0000 0.0000 0.0000 -91.3644 2.6666 31.7241 17.2103 -27.1342 -4.1828 -0.0000 -0.0000 12.5612 11.5451 8.9860 1.8275 -7.1250 0.0000 -0.0000 -13.2550 38.8190 2.0610 0.0000 0.0000 0.0000 84.3043 -6.2034 22.3454 -24.4551 35.6418 -7.9702 0.0000 -0.0000 -3.3857 -19.3726 -10.7206 3.7423 7.1250 -0.0000 -0.0000 6.8470 -41.2312 0.6398
0.00 0.00 0.00 174.9710 1.9231 -165.7340 0.0000 0.0000 0.0000 -27.4423 -6.3156 -6.5474 2.3309 9.5238 27.4480 1.2323 -1.0654 -20.6657 0.5809 -4.8804 -13.5678 0.0000 0.0000 0.0000 8.0011 9.2973 -47.3808 -3.4092 -11.3297 33.3999 -0.1999 -2.6809 -9.8741 -0.0102 0.6521 -1.7921 -5.7351 -0.9578 7.3055 1.1013 -1.7392 -0.9908 4.5767 -0.6823 -4.9370 -1.1118 -0.3057 -18.1346 0.1095 -0.0019 17.2963 0.2269 -0.0108 8.3691 0.0000 -0.0000 0.0000 -89.8103 1.9228 21.9857 14.5431 -23.5058 -3.0414 -0.0000 -0.0000 17.1854 11.0267 9.7973 1.8992 -7.1250 0.0000 -0.0000 -13.8748 39.5813 1.8953 0.0000 -0.0000 0.0000 85.8173 -7.8968 17.3553 -20.8187 31.6161 -5.9546 0.0000 -0.0000 -1.3698 -19.0954 -10.6750 3.6692 7.1250 -0.0000 -0.0000 7.0827 -41.1580 0.6749
0.00 0.00 0.00 176.3360 -0.7761 -165.1500 0.0000 0.0000 0.0000 -23.5249 -6.7287 -1.4315 3.1438 10.9243 32.0251 0.1605 -4.0366 -7.2368 2.2963 -9.4578 -27.2380 0.0000 0.0000 0.0000 10.4035 13.4558 -42.2739 -4.3554 -12.6189 37.9582 -0.3763 0.3723 -11.4625 -0.0948 -1.9862 5.4675 -3.0822 -1.6480 7.8116 2.3872 -2.4010 -0.9678 4.5207 -1.0746 -5.1665 -1.1663 -0.3378 -18.8510 -0.2101 -0.0642 14.9038 0.1144 -0.1054 7.6923 0.0000 0.0000 0.0000 -89.6571 3.3051 25.3982 19.6524 -30.2212 -5.3553 -0.0000 -0.0000 11.4062 12.4945 10.2075 2.2488 -7.1250 0.0000 -0.0000 -12.7162 40.1070 1.5629 0.0000 0.0000 0.0000 86.3893 -10.0234 9.3311 -17.3916 27.3711 -4.2658 0.0000 0.0000 1.0123 -19.4683 -11.4047 3.9985 7.1250 -0.0000 -0.0000 6.8811 -41.9560 0.5195
0.00 0.00 0.00 177.9370 -1.7824 -164.6650 0.0000 0.0000 0.0000 -20.3516 -9.4210 -6.9487 5.5924 14.0214 43.3232 0.1278 -3.1366 8.6586 0.8646 -5.9291 -16.5787 0.0000 0.0000 0.0000 13.8724 12.7207 -37.8675 -4.1588 -12.3688 37.0496 -0.6015 1.6134 -14.1861 -0.2337 -3.1116 8.5897 -0.7094 -1.5619 7.4611 3.0255 -2.0621 -1.2952 3.8073 -0.9770 -5.4024 -1.2749 -0.4976 -18.8813 -0.7135 -0.1521 14.8303 -0.0451 -0.2024 7.6740 -0.0000 -0.0000 0.0000 -89.5972 4.8367 28.3509 22.1810 -33.1810 -6.6846 -0.0000 -0.0000 8.6595 12.3004 10.6096 2.2989 -7.1250 0.0000 -0.0000 -12.9742 40.4908 1.4707 -0.0000 -0.0000 0.0000 86.4426 -11.0297 9.0781 -17.0957 26.9838 -4.1307 0.0000 0.0000 0.9663 -19.0559 -11.6574 3.9925 7.1250 -0.0000 -0.0000 7.2926 -42.1791 0.5105
0.00 0.00 0.00 179.9430 -2.7269 -165.2440 0.0000 0.0000 0.0000 -16.4942 -11.6977 -15.7980 9.8177 17.3061 58.8774 0.6597 -2.1377 16.2630 0.0168 0.8361 2.2981 0.0000 0.0000 0.0000 18.0792 11.3390 -32.1443 -3.7669 -11.8436 35.1808 -0.8211 2.5229 -16.4539 -0.4028 -4.0744 11.2860 1.7733 -1.1779 8.4818 3.5601 -1.3248 -1.0817 2.9117 -0.7101 -5.8521 -1.5326 -0.9219 -18.7942 -0.6223 -0.6964 14.0711 -0.0363 -0.4676 7.4106 -0.0000 -0.0000 0.0000 -88.9344 5.9845 32.6506 25.9259 -37.1354 -8.8429 -0.0000 -0.0000 7.7065 11.8456 9.1711 1.9146 -7.1250 0.0000 -0.0000 -13.0408 39.0251 1.9589 -0.0000 -0.0000 0.0000 86.0973 -11.6052 12.0258 -17.9519 28.0956 -4.5266 0.0000 -0.0000 -0.2045 -18.7261 -11.4098 3.8365 7.1250 -0.0000 -0.0000 7.5390 -41.8889 0.5823
0.00 0.00 0.00 181.2080 -3.4030 -165.1370 0.0000 0.0000 0.0000 -12.5563 -13.4698 -31.2762 14.2017 19.1741 72.8194 -0.0480 -3.9457 2.1705 0.0220 0.9580 2.6332 0.0000 0.0000 0.0000 21.7414 10.3859 -25.2357 -3.3975 -11.3122 33.3403 -1.3067 1.9872 -21.0497 -0.4665 -4.3806 12.1501 2.9825 -0.5260 8.9282 3.7028 -0.3461 -0.8202 2.2545 -0.2817 -5.8709 -2.0792 -1.4891 -17.8860 -0.0176 -1.5037 12.7904 0.1654 -0.8352 6.8505 -0.0000 0.0000 0.0000 -88.9445 7.2701 34.4605 30.7876 -41.5590 -11.9287 -0.0000 -0.0000 5.5876 12.9319 9.0284 2.0636 -7.1250 0.0000 -0.0000 -12.0906 38.9647 1.8292 -0.0000 0.0000 0.0000 85.4499 -9.3837 16.2946 -18.2780 28.5117 -4.6812 0.0000 0.0000 0.5572 -19.6583 -11.0570 3.9193 7.1250 -0.0000 -0.0000 6.6524 -41.6102 0.5590
0.00 0.00 0.00 182.0740 -5.3551 -162.7260 0.0000 0.0000 0.0000 -7.7501 -17.9114 -52.9840 10.4795 17.6708 61.0792 0.5933 -6.5393 -13.7923 0.2715 -3.3515 -9.2589 0.0000 0.0000 0.0000 26.3150 8.7788 -14.8342 -2.6873 -10.1707 29.5313 -2.4683 -1.8300 -30.4128 -0.3033 -3.5411 9.7891 4.4209 0.2902 9.8628 3.3603 0.9477 -0.8798 0.9081 0.2925 -6.4570 -3.7603 -3.0253 -16.6571 1.2429 -3.3931 9.7031 0.6703 -1.7016 5.7262 -0.0000 0.0000 0.0000 -89.1152 8.8935 34.0811 33.3772 -43.6179 -13.6816 -0.0000 -0.0000 3.6074 14.7610 5.2579 1.3831 -7.1250 0.0000 -0.0000 -9.9060 35.2730 2.3965 -0.0000 0.0000 0.0000 84.4991 -5.8911 26.7545 -25.4810 36.6916 -8.5757 0.0000 -0.0000 -4.3407 -19.9338 -11.0348 3.9709 7.1250 -0.0000 -0.0000 6.4053 -41.6133 0.5376
0.00 0.00 0.00 183.1340 -5.3134 -158.5290 0.0000 0.0000 0.0000 -2.5219 -20.3217 -69.7479 13.1454 18.8340 69.5764 0.4835 -11.2878 -13.7247 0.1550 -2.5372 -6.9928 0.0000 0.0000 0.0000 30.4706 2.8845 1.6274 -1.2850 -7.1833 20.2596 -3.3092 -4.0979 -35.9915 -0.0430 1.3376 -3.6783 4.8637 1.9955 11.9232 2.7922 3.2936 0.1870 -0.3470 1.4111 -6.3852 -5.5713 -4.6180 -16.4408 3.1155 -5.5141 2.0614 1.4134 -2.7478 3.4525 0.0000 -0.0000 0.0000 -86.7928 17.4938 36.2395 50.1015 -53.0364 -26.2552 -0.0000 0.0000 -3.5406 18.2953 2.8964 0.9571 -7.1250 0.0000 -0.0000 -6.7442 32.9775 1.9986 0.0000 -0.0000 0.0000 83.5403 -2.6037 35.6693 -74.2687 59.0440 -46.4201 0.0000 -0.0000 -11.3346 -25.8182 -7.1480 3.4452 7.1250 -0.0000 -0.0000 0.8328 -37.9096 0.1454
0.00 0.00 0.00 182.3440 -3.5739 -156.9770 0.0000 0.0000 0.0000 -3.8528 -19.4045 -69.8610 15.0973 19.4137 75.5296 0.7539 -12.8987 -16.7604 0.0537 -1.4948 -4.1115 0.0000 0.0000 0.0000 28.8146 2.2818 3.7980 -1.3369 -7.3211 20.6702 -3.0389 -3.1045 -34.1629 -0.2992 3.5170 -9.7216 3.3316 2.4212 12.0216 1.9436 3.6871 -0.0556 -0.4642 1.6637 -6.7231 -5.5163 -4.5475 -16.2708 3.5493 -5.5095 0.7862 1.7249 -2.7531 3.4435 0.0000 0.0000 0.0000 -85.8724 20.8583 36.9398 59.3272 -56.1280 -33.7819 -0.0000 0.0000 -6.1296 18.4705 2.2649 0.7563 -7.1250 0.0000 -0.0000 -6.5463 32.3215 2.0435 0.0000 0.0000 0.0000 84.0701 -2.6693 37.8685 -93.5446 59.9525 -63.0692 0.0000 -0.0000 -12.4458 -27.0965 -3.4276 1.7521 7.1250 -0.0000 -0.0000 -0.3939 -33.8285 -0.1079
